#N canvas 382 241 450 433 12;
#X obj 72 250 incdec;
#X obj 114 170 select 1 0;
#X obj 94 131 >;
#X obj 248 151 f;
#X obj 31 36 inlet;
#X obj 116 36 inlet;
#X floatatom 69 304 5 0 0 0 - - -;
#X obj 77 341 outlet;
#X obj 220 34 inlet;
#X obj 95 96 +;
#X obj 170 86 f \$2;
#X obj 71 198 f \$1;
#X obj 298 41 loadbang;
#X obj 149 340 outlet;
#X connect 0 0 6 0;
#X connect 1 0 0 1;
#X connect 1 1 13 0;
#X connect 2 0 1 0;
#X connect 3 0 2 1;
#X connect 4 0 0 0;
#X connect 5 0 9 1;
#X connect 6 0 3 0;
#X connect 6 0 7 0;
#X connect 8 0 9 0;
#X connect 9 0 2 0;
#X connect 10 0 9 1;
#X connect 11 0 0 0;
#X connect 12 0 10 0;
#X connect 12 0 11 0;
