#N canvas 1912 0 1920 997 12;
#X obj 118 17 bng 15 250 50 0 empty empty clk 17 7 0 10 -262144 -1
-1;
#X obj 217 21 bng 15 250 50 0 empty empty clk256 17 7 0 10 -262144
-1 -1;
#X obj 356 21 bng 15 250 50 0 empty empty clk64 17 7 0 10 -262144 -1
-1;
#X floatatom 502 21 5 0 63 0 lenLoad - -;
#X floatatom 669 21 5 0 15 0 startVol - -;
#X obj 779 21 tgl 15 0 empty empty envAdd 17 7 0 10 -262144 -1 -1 0
1;
#X floatatom 978 21 5 0 7 0 envPeriod - -;
#X floatatom 1151 21 5 0 15 0 clkShift - -;
#X obj 1293 21 tgl 15 0 empty empty widthMode 17 7 0 10 -262144 -1
-1 0 1;
#X floatatom 1517 21 5 0 7 0 divisor - -;
#X obj 1675 15 bng 15 250 50 0 empty empty trigger 17 7 0 10 -262144
-1 -1;
#X obj 1847 27 tgl 15 0 empty empty lenEnable 17 7 0 10 -262144 -1
-1 0 1;
#X floatatom 490 524 5 0 15 0 noise - -;
#X obj 350 109 lenCounter;
#X text 379 183 out: chanEnable;
#X floatatom 860 362 5 0 127 0 period - -;
#X obj 51 797 array define lfsr-array 15;
#X obj 54 703 loadbang;
#X msg 54 729 1 1 1 1 1 1 1 1 1 1 1 1 1 1 1;
#X obj 54 761 array set lfsr-array;
#X text 965 874 array shift-right;
#X obj 822 855 array get lfsr-array;
#X obj 822 897 array set lfsr-array 1;
#X text 1035 777 array last bits xor;
#X obj 941 757 array get lfsr-array 13;
#X obj 952 789 !=;
#X floatatom 951 818 5 0 0 0 - - -;
#X text 688 975 array insert;
#X obj 536 935 array set lfsr-array 0;
#X obj 717 931 array set lfsr-array 8;
#X obj 714 900 spigot;
#X obj 552 859 +;
#X msg 552 885 \$1;
#X obj 740 768 t b b b;
#X obj 634 156 volumizer;
#X text 686 256 out: volume;
#X obj 626 335 array get lfsr-array 14;
#X floatatom 614 390 5 0 0 0 - - -;
#X obj 620 364 == 0;
#X obj 488 478 *;
#X obj 452 433 &&;
#X obj 754 408 varTimer;
#X obj 969 181 select 0;
#X msg 945 214 8;
#X obj 1023 221 * 16;
#X obj 490 572 outlet;
#X obj 72 13 inlet;
#X obj 1792 20 inlet;
#X obj 1729 13 inlet;
#X obj 1562 20 inlet;
#X obj 1372 19 inlet;
#X obj 1193 22 inlet;
#X obj 1019 21 inlet;
#X obj 841 17 inlet;
#X obj 712 20 inlet;
#X obj 544 20 inlet;
#X obj 312 17 inlet;
#X obj 176 19 inlet;
#X text 101 261 *bang clk;
#X text 101 278 *bang clk256;
#X text 101 296 *bang clk64;
#X text 101 314 *6bit lenLoad;
#X text 101 331 *4bit startVol;
#X text 101 349 *toggle envAdd;
#X text 101 367 *3bit envPeriod;
#X text 102 383 *4bit clkShift (?);
#X text 102 399 *toggle width;
#X text 102 414 *3bit divisor;
#X text 103 428 *bang trigger;
#X text 103 445 *toggle lenEnable;
#X obj 1062 247 + 1;
#X obj 899 273 <<;
#X obj 888 302 / 95;
#X obj 880 330 int;
#X floatatom 643 278 5 0 0 0 - - -;
#X connect 0 0 71 0;
#X connect 0 0 41 1;
#X connect 1 0 13 0;
#X connect 2 0 34 0;
#X connect 3 0 13 1;
#X connect 4 0 34 4;
#X connect 5 0 34 1;
#X connect 6 0 34 3;
#X connect 7 0 70 0;
#X connect 8 0 30 1;
#X connect 9 0 42 0;
#X connect 10 0 34 2;
#X connect 10 0 13 2;
#X connect 11 0 13 3;
#X connect 12 0 45 0;
#X connect 13 0 40 0;
#X connect 15 0 41 0;
#X connect 17 0 18 0;
#X connect 18 0 19 0;
#X connect 21 0 22 0;
#X connect 24 0 25 0;
#X connect 25 0 26 0;
#X connect 26 0 31 1;
#X connect 30 0 29 0;
#X connect 31 0 32 0;
#X connect 32 0 30 0;
#X connect 32 0 28 0;
#X connect 33 0 31 0;
#X connect 33 1 21 0;
#X connect 33 2 24 0;
#X connect 34 0 39 0;
#X connect 34 0 74 0;
#X connect 36 0 38 0;
#X connect 37 0 40 1;
#X connect 38 0 37 0;
#X connect 39 0 12 0;
#X connect 40 0 39 1;
#X connect 41 0 36 0;
#X connect 41 0 40 0;
#X connect 41 0 39 0;
#X connect 41 0 33 0;
#X connect 42 0 43 0;
#X connect 42 1 44 0;
#X connect 43 0 71 0;
#X connect 44 0 71 0;
#X connect 46 0 71 0;
#X connect 46 0 41 1;
#X connect 47 0 13 3;
#X connect 48 0 34 2;
#X connect 48 0 13 2;
#X connect 49 0 42 0;
#X connect 50 0 30 1;
#X connect 51 0 70 0;
#X connect 52 0 34 3;
#X connect 53 0 34 1;
#X connect 54 0 34 4;
#X connect 55 0 13 1;
#X connect 56 0 34 0;
#X connect 57 0 13 0;
#X connect 70 0 71 1;
#X connect 71 0 72 0;
#X connect 72 0 73 0;
#X connect 73 0 15 0;
#X coords 0 -1 1 1 293 219 1 100 250;
