#N canvas 2765 176 1920 997 12;
#X floatatom 134 521 5 0 255 0 period_counter - -;
#X obj 255 636 tgl 15 1 empty empty change_enable 17 7 0 10 -262144
-1 -1 0 1;
#X obj 49 592 tgl 15 0 empty empty period_enable 17 7 0 10 -262144
-1 -1 1 1;
#X obj 51 556 == 0;
#X msg 52 38 0;
#X obj 10 12 loadbang;
#X obj 151 10 bng 15 250 50 0 empty empty clk_64 17 7 0 10 -262144
-1 -1;
#X floatatom 518 683 5 0 15 0 volume - -;
#X floatatom 509 15 5 0 7 0 period - -;
#X floatatom 706 17 5 0 15 0 starting_volume - -;
#X obj 397 17 bng 15 250 50 0 empty empty trigger 17 7 0 10 -262144
-1 -1;
#X msg 11 41 1;
#X msg 255 559 1;
#X obj 111 395 - 1;
#X obj 67 411 > 1;
#X obj 68 382 +;
#X obj 522 167 +;
#X obj 261 13 tgl 15 0 empty empty envelope_add 17 7 0 10 -262144 -1
-1 0 1;
#X obj 536 88 tgl 15 0 empty empty empty 17 7 0 10 -262144 -1 -1 0
1;
#X obj 405 192 spigot;
#X obj 396 231 spigot;
#X obj 346 291 spigot;
#X obj 55 465 incrange 0 15;
#X msg 589 575 0;
#X obj 394 381 spigot;
#X obj 318 386 spigot;
#X obj 416 300 == 0;
#X obj 473 333 tgl 15 0 empty empty empty 17 7 0 10 -262144 -1 -1 1
1;
#X obj 518 726 outlet;
#X obj 352 12 inlet;
#X obj 105 9 inlet;
#X obj 216 10 inlet;
#X obj 755 16 inlet;
#X obj 550 16 inlet;
#X text 999 121 *bang clk_64;
#X text 999 134 *toggle env_add;
#X text 999 149 *bang trigger;
#X text 999 165 *3bit period;
#X text 999 180 *4bit start_vol;
#X obj 398 57 select 1;
#X obj 204 141 == 0;
#X obj 68 277 spigot;
#X obj 596 438 decrangestop 15 0;
#X obj 439 503 incrangestop 0 15;
#X connect 0 0 3 0;
#X connect 1 0 20 1;
#X connect 2 0 21 1;
#X connect 3 0 2 0;
#X connect 4 0 1 0;
#X connect 5 0 4 0;
#X connect 5 0 11 0;
#X connect 6 0 19 0;
#X connect 6 0 41 0;
#X connect 7 0 28 0;
#X connect 8 0 15 1;
#X connect 8 0 18 0;
#X connect 8 0 13 0;
#X connect 9 0 16 1;
#X connect 11 0 22 0;
#X connect 12 0 1 0;
#X connect 13 0 22 1;
#X connect 14 0 22 0;
#X connect 15 0 14 0;
#X connect 16 0 42 0;
#X connect 16 0 43 0;
#X connect 17 0 26 0;
#X connect 17 0 25 1;
#X connect 18 0 19 1;
#X connect 19 0 20 0;
#X connect 20 0 21 0;
#X connect 21 0 25 0;
#X connect 21 0 24 0;
#X connect 22 0 0 0;
#X connect 23 0 1 0;
#X connect 24 0 42 2;
#X connect 25 0 43 2;
#X connect 26 0 27 0;
#X connect 27 0 24 1;
#X connect 29 0 39 0;
#X connect 29 0 40 0;
#X connect 30 0 19 0;
#X connect 30 0 41 0;
#X connect 31 0 26 0;
#X connect 31 0 25 1;
#X connect 32 0 16 1;
#X connect 33 0 15 1;
#X connect 33 0 13 0;
#X connect 33 0 18 0;
#X connect 39 0 16 0;
#X connect 39 0 12 0;
#X connect 39 0 15 0;
#X connect 40 0 41 1;
#X connect 41 0 22 2;
#X connect 42 0 7 0;
#X connect 42 1 23 0;
#X connect 43 0 7 0;
#X connect 43 1 23 0;
#X coords 0 -1 1 1 120 100 1 995 100;
